<svg xmlns="http://www.w3.org/2000/svg" viewBox="0 0 480 420" width="480" height="420" role="img" aria-labelledby="eaStartTitle eaStartDesc">
  <title id="eaStartTitle">Gebuendelte Beschaffung von Strom und Gas</title>
  <desc id="eaStartDesc">Viele einzelne Lieferstellen laufen in einem gebuendelten Portfolio zusammen und werden gemeinsam am Markt beschafft.</desc>
  <circle cx="240" cy="210" r="186" fill="none" stroke="#ffffff" stroke-opacity=".06"/>
  <circle cx="240" cy="210" r="132" fill="none" stroke="#ffffff" stroke-opacity=".05"/>
  <line x1="420" y1="210" x2="314" y2="210" stroke="#c3923f" stroke-opacity=".45" stroke-width="1.5"/>
  <circle cx="420" cy="210" r="7" fill="#c3923f" stroke="#c3923f" stroke-width="1.5" stroke-opacity=".8"/>
  <line x1="395.9" y1="300" x2="304.1" y2="247" stroke="#c3923f" stroke-opacity=".16" stroke-width="1.5"/>
  <circle cx="395.9" cy="300" r="4.5" fill="#0b1825" stroke="#c3923f" stroke-width="1.5" stroke-opacity=".8"/>
  <line x1="330" y1="365.9" x2="277" y2="274.1" stroke="#c3923f" stroke-opacity=".45" stroke-width="1.5"/>
  <circle cx="330" cy="365.9" r="7" fill="#c3923f" stroke="#c3923f" stroke-width="1.5" stroke-opacity=".8"/>
  <line x1="240" y1="390" x2="240" y2="284" stroke="#c3923f" stroke-opacity=".16" stroke-width="1.5"/>
  <circle cx="240" cy="390" r="4.5" fill="#0b1825" stroke="#c3923f" stroke-width="1.5" stroke-opacity=".8"/>
  <line x1="150" y1="365.9" x2="203" y2="274.1" stroke="#c3923f" stroke-opacity=".45" stroke-width="1.5"/>
  <circle cx="150" cy="365.9" r="7" fill="#c3923f" stroke="#c3923f" stroke-width="1.5" stroke-opacity=".8"/>
  <line x1="84.1" y1="300" x2="175.9" y2="247" stroke="#c3923f" stroke-opacity=".16" stroke-width="1.5"/>
  <circle cx="84.1" cy="300" r="4.5" fill="#0b1825" stroke="#c3923f" stroke-width="1.5" stroke-opacity=".8"/>
  <line x1="60" y1="210" x2="166" y2="210" stroke="#c3923f" stroke-opacity=".45" stroke-width="1.5"/>
  <circle cx="60" cy="210" r="7" fill="#c3923f" stroke="#c3923f" stroke-width="1.5" stroke-opacity=".8"/>
  <line x1="84.1" y1="120" x2="175.9" y2="173" stroke="#c3923f" stroke-opacity=".16" stroke-width="1.5"/>
  <circle cx="84.1" cy="120" r="4.5" fill="#0b1825" stroke="#c3923f" stroke-width="1.5" stroke-opacity=".8"/>
  <line x1="150" y1="54.1" x2="203" y2="145.9" stroke="#c3923f" stroke-opacity=".45" stroke-width="1.5"/>
  <circle cx="150" cy="54.1" r="7" fill="#c3923f" stroke="#c3923f" stroke-width="1.5" stroke-opacity=".8"/>
  <line x1="240" y1="30" x2="240" y2="136" stroke="#c3923f" stroke-opacity=".16" stroke-width="1.5"/>
  <circle cx="240" cy="30" r="4.5" fill="#0b1825" stroke="#c3923f" stroke-width="1.5" stroke-opacity=".8"/>
  <line x1="330" y1="54.1" x2="277" y2="145.9" stroke="#c3923f" stroke-opacity=".45" stroke-width="1.5"/>
  <circle cx="330" cy="54.1" r="7" fill="#c3923f" stroke="#c3923f" stroke-width="1.5" stroke-opacity=".8"/>
  <line x1="395.9" y1="120" x2="304.1" y2="173" stroke="#c3923f" stroke-opacity=".16" stroke-width="1.5"/>
  <circle cx="395.9" cy="120" r="4.5" fill="#0b1825" stroke="#c3923f" stroke-width="1.5" stroke-opacity=".8"/>
  <circle cx="240" cy="210" r="66" fill="#0b1825" stroke="#c3923f" stroke-width="2"/>
  <rect x="214" y="184" width="52" height="52" fill="none" stroke="#c3923f" stroke-width="1.5" stroke-opacity=".5"/>
  <path d="M232 226 L246 202 L238 202 L252 180" fill="none" stroke="#c3923f" stroke-width="3" stroke-linecap="square"/>
</svg>
